<svg width="368" height="315" viewBox="0 0 368 315" fill="none" xmlns="http://www.w3.org/2000/svg">
<path d="M116.524 191.51V124.868H120.75V135.352C121.249 134.887 121.71 134.394 122.13 133.875C123.857 130.807 126.57 128.223 129.951 126.427C133.332 124.631 137.241 123.698 141.22 123.736C150.851 123.49 158.671 126.541 163.271 133.875C166.198 138.431 167.809 143.52 167.969 148.717C168.129 153.915 166.834 159.069 164.191 163.751C159.908 171.97 149.328 176.055 138 174.554C134.475 174.297 131.081 173.289 128.128 171.621C125.176 169.953 122.758 167.679 121.095 165.006V191.51H116.524ZM120.75 148.444C121.124 151.692 121.268 154.005 121.699 156.27C123.366 165.178 129.519 170.469 139.179 171.429C143.715 172.067 148.369 171.339 152.348 169.369C156.327 167.399 159.385 164.309 161 160.625C162.856 156.836 163.75 152.753 163.621 148.646C163.492 144.538 162.344 140.502 160.253 136.804C158.528 133.502 155.595 130.77 151.898 129.021C148.2 127.272 143.937 126.6 139.754 127.107C135.826 127.351 132.085 128.636 129.05 130.784C126.015 132.932 123.838 135.836 122.82 139.092C121.92 142.173 121.228 145.295 120.75 148.444ZM254.179 157.5C253.538 162.192 250.929 166.525 246.836 169.694C242.743 172.863 237.444 174.651 231.926 174.727C214.216 175.489 205.908 165.424 204.585 153.809C203.667 147.501 204.864 141.099 208.035 135.352C210.244 131.409 213.861 128.17 218.362 126.104C222.864 124.038 228.018 123.252 233.076 123.859C237.886 124.208 242.445 125.843 246.108 128.533C249.772 131.223 252.354 134.831 253.489 138.846C254.389 142.503 255.051 146.2 255.473 149.92H208.926C208.064 160.453 214.676 168.919 224.049 170.961C235.721 173.422 245.698 169.091 249.32 159.592C250.125 157.155 251.591 156.811 254.179 157.5ZM208.926 146.549H250.528C250.269 135.327 242.104 127.206 231.035 127.083C218.5 126.911 209.473 134.736 208.926 146.549ZM262.746 157.746H266.829C266.98 160.317 267.956 162.803 269.65 164.931C271.344 167.058 273.69 168.745 276.431 169.805C279.873 171.131 283.62 171.775 287.393 171.69C291.166 171.604 294.868 170.792 298.224 169.313C300.052 168.607 301.584 167.438 302.612 165.964C303.641 164.49 304.116 162.781 303.974 161.068C304.079 159.417 303.552 157.781 302.473 156.408C301.394 155.036 299.821 154.002 297.994 153.464C293.509 152.037 288.736 151.249 284.165 149.994C279.409 148.835 274.758 147.379 270.25 145.638C262.89 142.562 262.43 130.577 270.768 126.788C275.037 124.725 279.841 123.611 284.743 123.547C289.644 123.482 294.486 124.469 298.828 126.418C301.457 127.662 303.582 129.563 304.917 131.867C306.253 134.171 306.736 136.769 306.303 139.314H302.795C302.795 139.166 302.479 139.043 302.479 138.895C302.048 129.322 292.675 126.369 282.613 127.206C279.609 127.523 276.691 128.281 273.988 129.445C272.363 130.081 271.01 131.133 270.114 132.455C269.218 133.778 268.823 135.306 268.985 136.828C268.99 138.351 269.545 139.836 270.575 141.078C271.604 142.321 273.057 143.26 274.735 143.768C279.163 145.146 283.791 146.032 288.334 147.115C291.985 147.976 295.78 148.542 299.316 149.576C301.812 150.276 304.001 151.609 305.592 153.397C307.184 155.186 308.103 157.346 308.229 159.592C308.655 162.052 308.166 164.566 306.829 166.774C305.492 168.983 303.377 170.775 300.783 171.896C291.18 176.548 275.368 175.317 268.324 169.436C266.539 167.899 265.127 166.075 264.169 164.068C263.212 162.062 262.728 159.913 262.746 157.746ZM359.979 139.314H356.155C356.155 138.871 355.954 138.477 355.896 138.108C355.834 135.654 354.789 133.294 352.937 131.421C351.084 129.548 348.536 128.277 345.719 127.821C340.404 126.516 334.734 126.749 329.59 128.486C327.557 128.985 325.767 130.033 324.487 131.475C323.207 132.916 322.506 134.673 322.489 136.484C322.417 138.262 323.065 140.006 324.322 141.423C325.579 142.84 327.369 143.842 329.389 144.26C335.139 145.786 341.033 146.721 346.869 148.099C348.76 148.488 350.623 148.973 352.446 149.551C355.17 150.385 357.536 151.903 359.235 153.906C360.935 155.91 361.889 158.305 361.973 160.78C362.057 163.255 361.266 165.694 359.705 167.778C358.144 169.862 355.885 171.495 353.223 172.463C349.165 174.04 344.768 174.874 340.312 174.912C335.857 174.95 331.441 174.191 327.348 172.684C323.981 171.441 321.141 169.346 319.208 166.679C317.276 164.013 316.344 160.904 316.538 157.771H320.275C320.966 160.626 322.461 163.294 324.628 165.544C326.796 167.794 329.571 169.557 332.714 170.682C335.857 171.807 339.274 172.258 342.667 171.998C346.06 171.738 349.328 170.774 352.188 169.189C353.93 168.415 355.376 167.229 356.354 165.772C357.332 164.315 357.802 162.648 357.708 160.97C357.794 159.317 357.249 157.685 356.154 156.322C355.059 154.959 353.475 153.938 351.641 153.415C347.156 151.988 342.384 151.225 337.813 149.97C333.029 148.828 328.349 147.389 323.811 145.663C316.624 142.636 316.049 130.75 324.243 126.96C328.565 124.811 333.463 123.657 338.461 123.61C343.459 123.562 348.386 124.623 352.763 126.689C355.266 127.968 357.28 129.842 358.562 132.084C359.843 134.325 360.335 136.837 359.979 139.314ZM109.537 173.521C108.032 174.009 106.37 174.008 104.866 173.518C103.361 173.028 102.119 172.084 101.372 170.863C96.6862 164.858 91.5113 159.124 86.5375 153.267L84.3813 150.806C78.4588 157.598 72.5363 164.12 67.1313 170.888C66.427 172.054 65.2514 172.962 63.8234 173.442C62.3953 173.922 60.8122 173.941 59.3688 173.496L81.5925 147.976L60.9213 124.917C62.4092 124.457 64.037 124.451 65.5298 124.899C67.0226 125.348 68.2889 126.223 69.115 127.378C73.9163 133.383 79.235 139.117 84.525 145.195C89.8438 139.166 95.105 133.407 100.021 127.452C100.729 126.304 101.906 125.419 103.326 124.966C104.747 124.512 106.313 124.521 107.726 124.991L99.705 134.096C96.1113 138.157 92.575 142.242 88.8375 146.204C88.5363 146.435 88.2954 146.718 88.1305 147.034C87.9656 147.35 87.8803 147.692 87.8803 148.038C87.8803 148.384 87.9656 148.726 88.1305 149.042C88.2954 149.358 88.5363 149.64 88.8375 149.871C95.7088 157.672 102.522 165.498 109.537 173.521ZM203.895 124.671V128.116C200.987 127.953 198.072 128.314 195.337 129.175C192.602 130.035 190.108 131.378 188.017 133.115C185.925 134.851 184.282 136.944 183.194 139.258C182.106 141.572 181.597 144.056 181.7 146.549V173.619H177.589V124.868H181.614V134.859C186.588 127.575 194.264 124.868 203.895 124.671ZM6.12375 147.656C6.7275 145.195 7.10125 142.513 7.935 140.003C12.9087 124.868 33.1775 118.568 47.1213 127.944C55.2863 133.432 57.3275 141.209 56.925 149.97H10.925C10.1775 165.621 23.3738 175.071 40.25 170.248C42.9876 169.409 45.4382 168.001 47.3807 166.149C49.3232 164.297 50.6963 162.061 51.3763 159.641C52.2675 157.18 53.705 156.762 56.4363 157.475C55.9864 160.471 54.7488 163.341 52.8167 165.869C50.8846 168.396 48.3082 170.516 45.2813 172.069C40.2799 174.41 34.5418 175.337 28.8875 174.718C23.2333 174.1 17.9524 171.966 13.8 168.623C9.69208 164.67 7.20821 159.674 6.7275 154.399C6.7275 153.563 6.35375 152.726 6.1525 151.938C6.13333 150.478 6.12375 149.051 6.12375 147.656ZM10.9825 146.598H52.5838C52.325 135.253 43.9588 127.206 32.8038 127.132C20.3837 126.984 11.5 134.859 10.9537 146.549L10.9825 146.598Z" fill="white"/>
</svg>
