<svg width="600" height="315" viewBox="0 0 600 315" fill="none" xmlns="http://www.w3.org/2000/svg">
<path d="M174.6 37.1C173.9 41.4 169 98.6 169 102.1C169 104.4 169.5 104.8 172.7 105.3C174.7 105.7 176.6 105.7 176.8 105.5C178.1 104.2 192.9 36.5 192 35.7C191.6 35.2 187.6 34.6 183.2 34.3L175.1 33.7L174.6 37.1Z" fill="white"/>
<path d="M127.3 60.2C124.4 61.3 122 62.6 122 63.1C122 63.9 141.8 108.1 142.5 108.8C143.3 109.6 150 106.8 150 105.7C150 105 147 94 143.3 81.3C135.7 55.1 136.8 56.6 127.3 60.2Z" fill="white"/>
<path d="M197.2 63.7C194.7 69.9 182 106.1 182 107C182 108.3 189 110.4 190 109.4C191 108.3 212 67.6 212 66.7C212 65.7 202.3 61 200.2 61C199 61 197.8 62.1 197.2 63.7Z" fill="white"/>
<path d="M151.9 75.8C150.5 76.4 150.5 77.5 152.1 87.5C155.2 106.6 154.5 105 159 105C161.1 105 163.2 104.5 163.5 104C163.9 103.4 163.8 96.7 163.4 89L162.7 75L158.1 75.1C155.6 75.1 152.8 75.4 151.9 75.8Z" fill="white"/>
<path d="M559.6 105.6C550.2 109 544 117.8 544 127.7C544 140.4 550.6 147.4 569.5 154.5C579.1 158.1 582 160.4 582 164.4C582 169.6 579.1 171.5 571.1 171.5C564.7 171.4 560.9 170.1 554.8 165.7C553.2 164.7 552.2 165.3 547.3 170.3C540.5 177 540.6 177.7 549.1 182.8C556.4 187.2 560.8 188.3 572 188.3C583.2 188.4 588.7 186.3 594.5 179.9C599.1 174.7 600 172.3 600 164.4C600 151.3 594.6 145.3 576.3 138.5C572.6 137.1 567.8 134.8 565.8 133.4C562.7 131.4 562 130.4 562 127.6C562 123.6 564.5 121.1 569.3 120.3C574.4 119.5 579.2 120.6 583.6 123.6L587.4 126.2L592.7 120.7C595.6 117.7 598 114.5 598 113.7C598 111.8 591.6 107.6 585.6 105.6C579.7 103.6 565 103.6 559.6 105.6Z" fill="white"/>
<path d="M515.7 105.7C515.3 106 515 119.5 515 135.5C515 163.3 514.9 164.9 513 167.3C508.5 172.9 500.7 172.9 494.8 167.3L491.9 164.6L486.3 170.3L480.6 176L484.4 179.9C490 185.6 496.9 188.4 505.5 188.3C509.4 188.3 514.1 187.6 516.1 186.8C521.1 184.6 526.6 179.5 529.8 174.1L532.5 169.5L532.8 137.2L533.1 105H524.7C520.1 105 516 105.3 515.7 105.7Z" fill="white"/>
<path d="M153.4 127.8C146.1 130.3 140.8 135 136.9 142.2C133.7 148 133.5 149.1 133.5 157.5C133.5 165.3 133.9 167.2 136.2 171.5C139.6 178 145.2 183.3 151.5 186.1C158.5 189.3 170.5 189.3 177.4 186.2C182.7 183.8 189 179.4 189 178.1C189 177.3 179.1 167 178.3 167C178.1 167 176.2 168.3 174.2 169.9C168.9 174.1 164.2 174.7 158.6 172C147.1 166.5 146.3 150.5 157.1 143.2C161.8 139.9 169.8 140.5 173.8 144.3C175.4 145.8 177.1 147 177.6 147C179 147 188 137.7 188 136.2C188 134.3 180.1 129.1 174.7 127.5C168 125.5 159.7 125.7 153.4 127.8Z" fill="white"/>
<path d="M206.3 127.4C201.7 128.9 195.9 132.2 193.9 134.6C192.9 135.9 193.4 136.9 197.5 141L202.3 145.9L205.4 143.7C207.5 142.2 210.3 141.4 214.5 141.2C219.9 140.8 221 141.1 223.2 143.1C224.7 144.4 226.1 146.5 226.5 147.7C227.1 149.9 227 150 219.2 150C214.9 150 209 150.7 206.2 151.5C189.4 156.5 185.7 177.8 200.2 186C203.8 188 205.8 188.4 212 188.4C216.5 188.3 221 187.7 223.3 186.7C225.3 185.8 227 185.5 227 186.1C227 186.6 230.6 187 235 187H243V167.2C243 143.6 242.1 139.3 235.9 133.1C229.3 126.5 216.8 124.2 206.3 127.4ZM227 166.5C227 170.5 226.7 171.1 223.8 172.6C219.9 174.6 211.9 175 209.7 173.1C207.6 171.4 207.5 166.7 209.4 165.1C211.6 163.2 216 162.2 221.8 162.1L227 162V166.5Z" fill="white"/>
<path d="M275.9 126.9C274.5 127.4 272.4 128.2 271.3 128.8C269.6 129.7 269.1 129.7 268.6 128.5C268.2 127.3 266.2 127 260 127H252V157V187H260.5H269V165.6C269 149.7 269.3 144 270.3 143.2C272.9 141 280 139.8 283.5 141C289.9 143.1 290.5 145.2 290.8 167.2L291.2 187H299.2H307.2L306.8 164.7C306.4 139.8 305.9 137.6 298.6 131.2C293.2 126.5 283.4 124.7 275.9 126.9Z" fill="white"/>
<path d="M387.1 127.9C381.5 129.9 377.3 132.5 375.6 135.3C374.7 136.6 375.4 137.8 378.9 141.4L383.3 145.9L387.5 143.4C395.8 138.6 407.8 141.4 408 148.2C408 149.8 407 150 400.7 150C391.2 150 383.9 152.2 379.1 156.6C374 161.1 372.7 164.7 373.2 172C373.8 180 377.4 184.7 385.1 187.4C389.8 189 391.4 189.1 397.9 188.1C402 187.5 405.9 186.5 406.7 185.9C407.6 185.1 408 185.1 408 185.9C408 186.6 410.9 187 416.6 187H425.2L424.8 165.7C424.4 142.8 423.9 140.6 418.5 134.2C414.2 129.1 408.6 126.7 400 126.3C394.4 126 391.1 126.4 387.1 127.9ZM408 167V171.9L402.5 173.5C393.8 176.1 387.6 173 389.5 167.1C390.3 164.5 396.5 162.1 402.8 162.1L408 162V167Z" fill="white"/>
<path d="M447 126.9C438.2 129.6 433 135.4 432.2 143C432 145.8 432.3 149.3 433 151C434.8 155.2 440.9 160.4 446.6 162.5C457.8 166.6 462.2 168.9 461.8 170.7C460.9 175.7 451.1 175.8 445.5 170.9C443.7 169.3 441.8 168 441.3 168C440.8 168 438.4 170 436 172.5C430.9 177.7 431 178.4 437.8 183.7C445.4 189.5 458.3 190.4 467.9 185.8C473.6 183 478 176.3 478 170.3C478 160.5 472.1 155.2 453.8 148.6C448.2 146.5 447 144.2 450.2 141.7C453.3 139.1 459.9 139.9 464.4 143.4C466.3 144.8 468.3 146 468.7 146C469.2 146 471.6 144 474 141.5L478.4 137L475 133.5C469.1 127.4 455.8 124.3 447 126.9Z" fill="white"/>
<path d="M312 128.5C312 129.3 316.8 142.8 322.7 158.5L333.4 187H341.5H349.5L360.3 157.7C366.2 141.7 371 128.1 371 127.7C371 127.3 367.1 127.1 362.3 127.2L353.7 127.5L347.5 146L341.3 164.5L335.1 145.7L328.8 127H320.4C313.6 127 312 127.3 312 128.5Z" fill="white"/>
<path d="M186.5 205.7C184.9 206.5 183.3 207.4 183.1 207.6C182.6 208 197.1 247.2 198.1 248.4C199.1 249.6 211 244.1 211 242.6C210.9 240.9 191.3 204.6 190.4 204.3C189.9 204.2 188.2 204.8 186.5 205.7Z" fill="white"/>
<path d="M139.4 211.7C122 251.1 111.9 275.3 112.6 275.9C114.1 277.3 124.9 281 127.5 281C128.9 281 130.1 280.3 130.4 279.2C135.3 262.9 150 210.6 150 209.6C150 208.4 145.2 206 142.8 206C142.4 206 140.8 208.6 139.4 211.7Z" fill="white"/>
<path d="M172.2 209.7C169.3 210.1 168.9 210.5 169.3 212.3C169.6 213.5 170.8 225.9 172.1 239.8L174.4 265.1L176.9 264.6C178.4 264.3 181.7 263.8 184.3 263.4C187 263 189.4 262.2 189.6 261.5C189.9 260.8 187.8 250.4 185 238.4C178.4 209.8 178.1 209 176.7 209.2C176 209.2 174 209.5 172.2 209.7Z" fill="white"/>
<path d="M155 210.6C155 211 154.3 215.7 153.4 221.2C152.5 226.7 152 231.3 152.2 231.4C152.4 231.6 155.1 232 158.3 232.4L164 233V221.5V210H159.5C157 210 155 210.3 155 210.6Z" fill="white"/>
</svg>
